<?xml version="1.0" standalone="no"?>
<!DOCTYPE svg PUBLIC "-//W3C//DTD SVG 20010904//EN"
 "http://www.w3.org/TR/2001/REC-SVG-20010904/DTD/svg10.dtd">
<svg version="1.0" xmlns="http://www.w3.org/2000/svg"
 width="247.000000pt" height="247.000000pt" viewBox="0 0 247.000000 247.000000"
 preserveAspectRatio="xMidYMid meet">
<metadata>
Created by potrace 1.11, written by Peter Selinger 2001-2013
</metadata>
<g transform="translate(0.000000,247.000000) scale(0.100000,-0.100000)"
fill="#000000" stroke="none">
<path d="M1186 2448 c3 -4 -9 -5 -27 -1 -22 4 -30 3 -25 -5 4 -7 -3 -8 -24 -2
-17 5 -28 5 -26 1 3 -4 -9 -9 -27 -10 -54 -3 -57 -4 -57 -12 0 -4 -6 -6 -12
-6 -25 2 -88 -15 -88 -24 0 -5 -5 -9 -10 -9 -6 0 -27 -7 -48 -16 -20 -8 -38
-14 -40 -12 -2 2 -8 -5 -13 -14 -6 -10 -14 -18 -20 -18 -5 0 -15 -5 -22 -10
-46 -39 -64 -58 -70 -73 -3 -9 -11 -17 -17 -17 -6 0 -8 -4 -5 -10 3 -5 2 -10
-3 -10 -13 0 -77 -67 -77 -80 0 -6 -7 -15 -15 -20 -8 -5 -12 -10 -7 -10 4 0 1
-15 -6 -32 -8 -18 -12 -39 -9 -47 3 -9 0 -11 -8 -6 -10 6 -12 0 -8 -24 2 -17
2 -31 -2 -31 -4 0 -8 -61 -9 -136 -2 -110 0 -135 11 -128 10 6 10 5 2 -7 -6
-8 -9 -23 -7 -34 2 -11 4 -28 4 -38 0 -9 3 -16 7 -13 4 2 8 -11 9 -29 1 -24
-2 -32 -12 -29 -7 3 -18 -7 -26 -25 -7 -16 -18 -27 -24 -23 -5 3 -4 -2 3 -11
8 -9 11 -20 8 -25 -3 -5 1 -21 9 -36 8 -14 10 -24 5 -21 -6 4 -10 1 -10 -4 0
-6 5 -11 10 -11 6 0 10 -5 10 -11 0 -5 -6 -7 -12 -3 -10 6 -10 5 -1 -7 6 -8
14 -36 16 -64 3 -27 10 -51 16 -53 5 -2 8 -9 5 -17 -3 -7 0 -16 5 -20 6 -3 9
-10 6 -15 -6 -10 44 -52 55 -45 4 3 13 -2 20 -10 10 -12 9 -15 -6 -16 -11 0
-49 -1 -87 -2 -37 -1 -67 2 -67 6 0 5 -6 5 -12 0 -7 -4 -26 -6 -42 -4 -34 3
-76 -16 -76 -36 0 -7 -3 -13 -8 -13 -11 0 -9 -134 3 -142 7 -5 7 -8 0 -8 -6 0
-11 -9 -11 -20 0 -11 5 -20 11 -20 5 0 3 -5 -5 -10 -12 -8 -12 -10 -1 -10 11
0 11 -3 1 -15 -10 -12 -10 -15 0 -15 9 0 9 -4 -1 -17 -8 -9 -9 -14 -3 -10 9 5
16 -65 17 -190 0 -18 4 -33 9 -33 5 0 6 -6 1 -12 -11 -19 -13 -39 -2 -32 12 7
11 -3 -2 -28 -8 -15 -8 -19 0 -14 24 15 9 -12 -29 -53 -22 -23 -40 -49 -40
-57 0 -9 -4 -13 -9 -10 -5 3 -12 -2 -17 -12 -4 -9 -8 -19 -9 -22 -2 -3 -6 -15
-10 -27 -4 -13 -11 -23 -16 -23 -5 0 -8 -3 -7 -8 1 -4 -4 -20 -10 -35 -7 -16
-10 -32 -7 -37 3 -5 1 -10 -5 -12 -5 -1 -11 -15 -12 -31 -1 -15 -5 -27 -8 -27
-6 0 -8 -11 -13 -60 -1 -14 -8 -29 -14 -33 -10 -6 -10 -12 -1 -27 12 -18 42
-19 1111 -19 605 0 1096 3 1093 6 -3 3 0 13 7 21 10 13 9 14 -2 7 -11 -6 -13
-4 -8 8 3 10 2 17 -3 17 -5 0 -7 9 -5 20 2 11 0 20 -5 20 -4 0 -7 11 -6 25 2
13 -1 22 -5 19 -8 -4 -14 25 -10 49 0 4 -3 7 -9 7 -6 0 -9 3 -8 8 2 4 -8 32
-22 62 -13 30 -23 58 -22 63 1 4 -3 7 -9 7 -5 0 -8 4 -5 9 3 5 -1 11 -9 15 -8
3 -15 12 -15 21 0 8 -5 15 -11 15 -5 0 -8 4 -4 9 3 5 -4 12 -15 16 -22 7 -22
7 -25 77 -2 26 0 46 4 44 4 -3 7 4 7 14 0 10 -4 16 -9 13 -7 -4 -3 28 9 65 2
6 -2 12 -9 12 -8 0 -8 3 -2 8 6 4 10 18 10 32 -1 14 2 32 6 41 4 8 4 21 -1 29
-5 8 -4 22 2 33 7 15 7 22 -3 28 -8 5 -9 9 -3 9 6 0 12 26 13 62 1 34 8 69 14
77 7 9 8 12 1 8 -7 -4 -11 8 -12 35 -1 22 -8 48 -14 56 -11 13 -10 14 2 7 8
-4 4 4 -9 18 -24 27 -26 27 -164 27 -123 0 -138 2 -127 15 7 8 18 15 24 14 24
-3 37 2 31 11 -3 5 -1 10 4 10 6 0 11 7 11 15 0 8 4 15 9 15 6 0 8 9 6 20 -2
11 0 20 4 20 8 0 10 13 12 63 0 15 5 27 11 27 6 0 5 7 -3 17 -10 11 -10 14 -1
9 12 -7 14 3 16 81 0 17 4 29 8 27 14 -9 9 10 -12 44 -11 17 -27 32 -35 32
-18 0 -19 12 -4 27 5 5 11 24 11 42 1 17 4 31 8 31 3 0 5 14 4 30 -1 17 3 30
9 30 8 0 8 3 2 8 -13 9 -17 32 -6 32 4 0 5 18 1 40 -5 25 -4 40 3 40 5 0 4 7
-3 15 -10 12 -10 15 1 15 11 0 11 2 -1 10 -13 9 -13 10 0 10 9 0 11 3 5 8 -5
4 -10 21 -9 37 0 30 -11 75 -27 108 -6 12 -5 17 3 17 9 0 9 3 2 8 -11 8 -44
75 -44 91 0 5 -8 15 -17 20 -10 6 -14 11 -9 11 6 0 1 7 -10 16 -10 8 -13 12
-5 8 9 -5 12 -3 7 4 -4 7 -14 12 -21 12 -9 0 -12 6 -9 15 4 8 1 15 -5 15 -6 0
-24 14 -39 30 -16 17 -32 30 -36 30 -4 0 -16 9 -28 20 -12 10 -25 17 -30 14
-4 -3 -8 0 -8 5 0 6 -9 11 -21 11 -11 0 -17 5 -14 10 3 6 -1 11 -9 11 -9 1
-20 3 -26 4 -5 1 -17 3 -26 4 -8 0 -12 6 -8 12 4 7 1 10 -7 7 -8 -3 -28 0 -46
7 -17 8 -34 11 -37 7 -3 -3 -6 1 -6 9 0 11 -2 11 -10 -1 -5 -8 -10 -10 -10 -4
0 12 -3 12 -73 15 -30 1 -43 5 -35 10 7 5 8 9 3 9 -6 0 -17 -6 -24 -12 -11
-11 -12 -10 -6 1 6 11 4 13 -8 8 -10 -4 -17 -1 -17 6 0 8 -2 9 -8 1 -4 -7 -15
-8 -27 -4 -11 4 -30 4 -42 -1 -13 -5 -23 -5 -23 0 0 4 -7 8 -15 8 -8 0 -12 -4
-9 -9z"/>
</g>
</svg>
